Coordinates
version=1
nRows=13
nColumns=36
inDegrees=yes

Units are S.I. units (second, meters, Newtons, ...)
If the header above contains a line with 'inDegrees', this indicates whether rotational values are in degrees (yes) or radians (no).

endheader
time	pelvis_tilt	pelvis_list	pelvis_rotation	pelvis_tx	pelvis_ty	pelvis_tz	hip_flexion_r	hip_adduction_r	hip_rotation_r	knee_angle_r	knee_angle_r_beta	ankle_angle_r	subtalar_angle_r	mtp_angle_r	hip_flexion_l	hip_adduction_l	hip_rotation_l	knee_angle_l	knee_angle_l_beta	ankle_angle_l	subtalar_angle_l	mtp_angle_l	lumbar_extension	lumbar_bending	lumbar_rotation	arm_flex_r	arm_add_r	arm_rot_r	elbow_flex_r	pro_sup_r	arm_flex_l	arm_add_l	arm_rot_l	elbow_flex_l	pro_sup_l
      0.00000000	     -5.38537108	     -0.98108797	     -1.28007332	     -0.86520779	      1.22341837	     -0.09946418	     11.09044639	     -2.51579615	     -2.71840557	     15.73690580	      0.27466082	      5.35377021	     -7.14390450	     -5.71144994	     10.75244927	     -4.59750793	     -5.87597669	     14.94432240	      0.26082763	      7.18089058	      2.43273345	     -5.71144994	    -20.26272748	      4.33211262	      1.44415541	      5.50281137	    -14.48651785	     16.14029882	     27.72933375	     72.96638661	      7.89509704	     -9.55224731	     25.56064526	     36.75230967	     70.97044937
      0.00416670	     -6.44485132	     -0.40713091	     -1.62108907	     -0.86007829	      1.21939804	     -0.09473438	     12.11143180	     -2.66324432	     -1.55023812	     16.29710963	      0.28443822	      9.74261564	     -3.05205918	     -5.76386822	     12.06968793	     -3.50437354	     -5.41286198	     15.95255951	      0.27842469	      9.43052831	      4.80622111	     -5.76386822	    -17.73810197	      3.51415611	      1.99860768	      5.18263994	    -13.29835880	     16.05187225	     24.99960351	     72.94858932	      7.69075558	     -9.46364207	     25.41815898	     36.53765673	     71.06069033
      0.00833330	     -6.87550664	     -0.31675519	     -2.00887096	     -0.86557754	      1.22333515	     -0.09815745	     12.44837277	     -2.81326037	     -2.02604289	     15.88304454	      0.27721142	     10.12051556	     -3.13363265	     -5.76770628	     12.33351671	     -3.41807471	     -5.67122297	     15.79930383	      0.27574987	      9.52666561	      4.54988811	     -5.76770628	    -17.70999055	      3.33527422	      2.08000679	      5.49083384	    -13.22006457	     16.05493779	     25.03404146	     72.95520477	      8.33939990	     -9.79424075	     25.33400308	     36.74164770	     71.09758457
      0.01250000	     -6.19171827	     -0.57331964	     -2.61661221	     -0.86668569	      1.22505236	     -0.09753270	     12.26922386	     -2.65535799	     -2.72468768	     16.46206540	      0.28731724	     11.15884576	     -1.19944817	     -5.88231789	     11.59956579	     -3.62083336	     -5.23909105	     15.98129195	      0.27892616	      9.29823737	      2.87242734	     -5.88231789	    -18.80581917	      3.37315316	      2.55666478	      6.02557414	    -13.26744101	     16.18201630	     24.39597419	     72.38830583	      8.96430575	    -10.08136523	     25.98020587	     37.37082019	     71.23180341
      0.01666670	     -5.97261901	     -0.79481473	     -2.71661069	     -0.86671617	      1.22584023	     -0.09801304	     12.13198192	     -2.53340957	     -3.21179323	     16.60286773	      0.28977471	     11.48019336	     -0.16076837	     -6.56351752	     11.50088799	     -3.74603289	     -4.86824293	     16.10873156	      0.28115040	      9.09945851	      1.90914076	     -6.56351752	    -19.36662674	      3.68077799	      2.85100960	      5.89056613	    -13.60289845	     15.20852649	     25.14858628	     75.04396528	      9.46683383	    -10.10799041	     26.44514391	     37.26197119	     79.98065176
      0.02083330	     -5.74894290	     -0.98941122	     -2.68214906	     -0.86720386	      1.22589643	     -0.09791533	     11.97924201	     -2.38602950	     -3.42176367	     16.74323482	      0.29222458	     11.51649466	      0.15901347	     -6.63134914	     11.56052624	     -3.90506634	     -4.42793115	     16.57945499	      0.28936608	      9.36428732	      1.37435133	     -6.63134914	    -19.83963604	      3.92890397	      2.83832137	      6.09190133	    -13.77264006	     15.14473134	     25.41253266	     74.22947043	      9.53970383	    -10.04900142	     26.54634682	     37.55513339	     79.01843569
      0.02500000	     -5.52029205	     -0.97651449	     -2.43004649	     -0.86735191	      1.22332058	     -0.09846158	     11.66705594	     -2.54470997	     -3.72517483	     16.76972693	      0.29268695	     11.59478062	      0.55695819	     -6.72158359	     11.32651371	     -3.86254982	     -4.38396498	     16.58057332	      0.28938560	      9.60782544	      0.94723659	     -6.72158359	    -20.17226281	      4.02690329	      2.85562921	      6.05317744	    -13.94460376	     15.19907947	     25.79748140	     73.97678828	      9.77840552	    -10.08930735	     27.22591110	     37.60113324	     78.80137599
      0.02916670	     -5.30759825	     -1.04889143	     -2.54322502	     -0.86177699	      1.22376478	     -0.09418218	     11.26794059	     -2.41916070	     -3.65327773	     16.87608011	      0.29454316	     11.61519989	      0.70410256	     -6.72502884	     11.07644237	     -4.06465174	     -4.23216015	     16.84174935	      0.29394398	      9.79732185	      0.81166059	     -6.72502884	    -20.14515073	      3.95039099	      2.91081734	      5.79929749	    -13.79306950	     15.25109571	     25.80250071	     74.04832505	      9.45592838	    -10.24076722	     27.37872407	     37.46705356	     78.91094646
      0.03333330	     -5.26779052	     -1.18182663	     -2.59387878	     -0.86759714	      1.22495590	     -0.09841941	     11.31312604	     -2.36379016	     -3.78658059	     17.02336101	      0.29711370	     11.55882830	      0.97271462	     -6.73303554	     11.22154674	     -4.14942892	     -4.04140771	     17.10550036	      0.29854730	      9.77830390	      0.60833301	     -6.73303554	    -20.50567610	      4.10059545	      3.08866669	      6.00194591	    -14.00610093	     15.32061231	     26.00524374	     74.22528784	      9.57973073	    -10.24539556	     27.76500823	     37.47218181	     79.20285746
      0.03750000	     -4.75188808	     -1.35071887	     -2.35501699	     -0.86206587	      1.22553894	     -0.09470279	     10.30250731	     -2.21861301	     -4.10136372	     16.54757587	      0.28880968	     11.54788951	      1.29616903	     -6.75781589	     10.55968112	     -4.33531254	     -3.54767533	     17.01778406	      0.29701636	      9.53709637	      0.27701360	     -6.75781589	    -20.92694529	      4.17572390	      3.20235957	      5.83563659	    -14.06529225	     15.78224902	     26.18568020	     74.80606109	      9.71313184	    -10.40854505	     28.88035508	     36.74750351	     80.04903674
      0.04166670	     -4.74447029	     -1.41980665	     -2.31067595	     -0.86189110	      1.22613371	     -0.09499250	     10.04835014	     -2.07384032	     -4.07609503	     16.27555556	      0.28406203	     11.43213323	      1.25045659	     -6.88913174	     10.36732713	     -4.43971336	     -3.41083823	     16.77894662	      0.29284786	      9.37125540	      0.24286690	     -6.88913174	    -20.74812536	      4.18884100	      3.58891122	      5.61733672	    -14.27037463	     16.85081376	     26.00542999	     75.26762993	     10.02112142	    -10.59221527	     30.98616352	     35.83185940	     80.72934183
      0.04583330	     -4.66741935	     -1.44973691	     -2.34262504	     -0.86788910	      1.22584039	     -0.09865907	     10.06855261	     -2.09036958	     -4.07429072	     16.26425827	      0.28386486	     11.43303939	      1.25071928	     -6.88917250	     10.43624691	     -4.42251521	     -3.40675088	     16.75766394	      0.29247641	      9.37055650	      0.24735772	     -6.88917250	    -20.74733891	      4.18601767	      3.59596834	      5.61618509	    -14.26834588	     16.85112810	     26.00672239	     75.26815336	     10.00986308	    -10.60186935	     30.98652971	     35.82783502	     80.73001528
      0.05000000	     -4.70654740	     -1.45691419	     -2.39657277	     -0.86216664	      1.22276584	     -0.09479129	      9.92654770	     -1.97747720	     -3.99287133	     15.82423270	      0.27618496	     10.82254709	      1.07134597	     -6.91558562	     10.24248638	     -4.40349384	     -2.95990233	     16.49802342	      0.28794483	      8.90228055	     -0.09293204	     -6.91558562	    -20.67993590	      4.21646357	      3.67955735	      5.45708315	    -14.39846811	     16.98398168	     26.40342660	     75.25295527	      9.83077767	    -10.82244702	     31.47763644	     35.77783073	     80.65875253
